<svg xmlns="http://www.w3.org/2000/svg" width="413.386" height="131.677" viewBox="0 0 413.386 131.677">
  <g id="Group_39" data-name="Group 39" transform="translate(-190.166 -1106.495)">
    <path id="Path_165" data-name="Path 165" d="M48.6,131.61a60.817,60.817,0,0,1-24.927-4.847,41.96,41.96,0,0,1-17.2-13.387A33.365,33.365,0,0,1,0,93.642H27.272a13.947,13.947,0,0,0,3.1,8.225,18.458,18.458,0,0,0,7.6,5.473,28.067,28.067,0,0,0,10.7,1.941,25.9,25.9,0,0,0,10.947-2.19,17.939,17.939,0,0,0,7.443-6.068A16.089,16.089,0,0,0,66.9,82.976a18.743,18.743,0,0,0-8.13-6.224A31.9,31.9,0,0,0,46.226,74.5H34.278V54.608H46.226a26.176,26.176,0,0,0,10.852-2.125,17.408,17.408,0,0,0,7.35-5.912,15.137,15.137,0,0,0,2.625-8.852,15.25,15.25,0,0,0-8.664-14.2,20.943,20.943,0,0,0-9.538-2.064,25.179,25.179,0,0,0-10.071,1.969,17.875,17.875,0,0,0-7.319,5.6,14.627,14.627,0,0,0-2.938,8.508H2.562A33.353,33.353,0,0,1,8.882,18.015,41.2,41.2,0,0,1,25.426,4.785,55.808,55.808,0,0,1,48.976,0Q62.239,0,72.184,4.817A38.433,38.433,0,0,1,87.666,17.8a31.518,31.518,0,0,1,5.475,18.3q.059,10.761-6.662,17.953a30.61,30.61,0,0,1-17.484,9.133v1q14.133,1.813,21.548,9.788t7.35,19.926a31.353,31.353,0,0,1-6.288,19.453,42.5,42.5,0,0,1-17.482,13.385A63,63,0,0,1,48.6,131.61" transform="translate(190.166 1106.496)" fill="#fff"/>
    <path id="Path_166" data-name="Path 166" d="M89.095,115.587a39.717,39.717,0,0,1-16.39-3.221,25.9,25.9,0,0,1-11.353-9.572q-4.161-6.348-4.159-15.858A28.014,28.014,0,0,1,60.131,73.49a23.815,23.815,0,0,1,8.007-8.759,38.864,38.864,0,0,1,11.541-5,87.13,87.13,0,0,1,13.606-2.378q8.381-.876,13.511-1.658t7.443-2.345a5.221,5.221,0,0,0,2.313-4.63v-.374q0-5.941-3.72-9.2T102.291,35.9q-7.191,0-11.448,3.156a14.838,14.838,0,0,0-5.627,7.914l-24.646-2A33.689,33.689,0,0,1,67.95,29.8a35.814,35.814,0,0,1,14.23-9.885,54.535,54.535,0,0,1,20.238-3.47,61.9,61.9,0,0,1,15.357,1.876,40.545,40.545,0,0,1,13.072,5.817,28.458,28.458,0,0,1,9.038,10.1,30.651,30.651,0,0,1,3.316,14.73v64.8h-25.27V100.449h-.752a26.77,26.77,0,0,1-6.193,7.914,27.974,27.974,0,0,1-9.321,5.314,37.888,37.888,0,0,1-12.572,1.909M96.726,97.2a22.176,22.176,0,0,0,10.383-2.347,18.155,18.155,0,0,0,7.067-6.349,16.428,16.428,0,0,0,2.564-9.07v-10.2a13.531,13.531,0,0,1-3.407,1.47,49.684,49.684,0,0,1-4.849,1.189q-2.689.534-5.378.94t-4.879.718a33,33,0,0,0-8.2,2.188,13.247,13.247,0,0,0-5.441,4.034,10.047,10.047,0,0,0-1.939,6.288,9.558,9.558,0,0,0,3.973,8.29,16.913,16.913,0,0,0,10.1,2.845" transform="translate(246.13 1122.584)" fill="#fff"/>
    <path id="Path_167" data-name="Path 167" d="M111.128,113.772V17.689h25.4V34.643h1.126a26.661,26.661,0,0,1,10.009-13.325,28.6,28.6,0,0,1,16.764-4.877q9.883,0,16.825,4.909a23.425,23.425,0,0,1,9.258,13.294h1a25.663,25.663,0,0,1,10.666-13.23,33.066,33.066,0,0,1,18.3-4.972q13.447,0,21.861,8.537t8.413,24.178v64.617H224.161V54.409q0-8-4.256-12.01a14.914,14.914,0,0,0-10.632-4q-7.256,0-11.321,4.6t-4.068,12.1v58.673H168.052V53.847q0-7.069-4.038-11.26a14.042,14.042,0,0,0-10.6-4.19,14.675,14.675,0,0,0-7.975,2.22,15.652,15.652,0,0,0-5.6,6.193,19.849,19.849,0,0,0-2.066,9.291v57.672Z" transform="translate(298.907 1122.584)" fill="#fff"/>
    <path id="Path_168" data-name="Path 168" d="M208.762,82.375A16.209,16.209,0,0,1,192.6,66.214,15.376,15.376,0,0,1,197.347,54.9a16.054,16.054,0,0,1,22.725,0,15.653,15.653,0,0,1,2.592,19.425,17.308,17.308,0,0,1-5.89,5.858,15.257,15.257,0,0,1-8.013,2.188" transform="translate(378.63 1155.609)" fill="#fff"/>
  </g>
</svg>
