<?xml version="1.0" encoding="UTF-8"?>
<svg id="Layer_1" xmlns="http://www.w3.org/2000/svg" version="1.1" viewBox="0 0 595.88 194.96">
  <!-- Generator: Adobe Illustrator 30.3.0, SVG Export Plug-In . SVG Version: 2.1.3 Build 182)  -->
  <defs>
    <style>
      .st0 {
        fill: #fff;
      }
    </style>
  </defs>
  <rect class="st0" x="192.64" y="100" width="15.13" height="72.73"/>
  <path class="st0" d="M283.41,70.95c2.92,1.7,6.25,2.56,9.62,2.49,3.69.12,7.33-.9,10.42-2.91,2.79-1.87,4.94-4.56,6.13-7.71h.57v9.91h14.52V18.18h-15.13v31.32h0c.09,2.14-.41,4.27-1.44,6.14-.91,1.58-2.24,2.88-3.85,3.75-1.57.84-3.33,1.27-5.11,1.26-2.59.12-5.09-.91-6.85-2.8-1.8-2.13-2.72-4.85-2.59-7.63V18.18h-15.13v34.73c-.08,3.79.73,7.55,2.36,10.97,1.44,2.93,3.69,5.38,6.48,7.07Z"/>
  <path class="st0" d="M175.36,124.36c-2.32-2.29-5.11-4.05-8.17-5.17-3.23-1.17-6.64-1.75-10.07-1.72-4.9-.12-9.73,1.11-13.97,3.55-3.95,2.36-7.15,5.79-9.22,9.91-2.26,4.59-3.38,9.66-3.27,14.77-.13,5.17.99,10.29,3.27,14.93,2.08,4.09,5.32,7.48,9.32,9.73,4.44,2.38,9.43,3.57,14.47,3.43h0c4.07.08,8.11-.62,11.91-2.07,3.24-1.24,6.14-3.24,8.45-5.82,2.19-2.5,3.69-5.53,4.35-8.79l-13.99-.92c-.48,1.32-1.26,2.51-2.27,3.48-1.02.97-2.25,1.69-3.59,2.13-1.49.49-3.05.73-4.62.71-2.29.06-4.56-.49-6.57-1.6-1.84-1.06-3.33-2.64-4.28-4.54-1.05-2.18-1.57-4.58-1.51-7v-.03h37.15v-4.16c.08-4.14-.58-8.26-1.95-12.16-1.16-3.25-3.02-6.2-5.45-8.65h0ZM145.65,139.95c.08-1.88.58-3.73,1.5-5.38.98-1.75,2.41-3.21,4.14-4.23,1.85-1.08,3.95-1.62,6.09-1.58,2.03-.04,4.03.45,5.81,1.44,1.65.94,3,2.31,3.92,3.96.97,1.77,1.46,3.77,1.42,5.79h-22.88Z"/>
  <path class="st0" d="M22.58,56.14h26.26l5.39,16.59h16.48L45.62,0h-19.81L.7,72.73h16.48s5.4-16.59,5.4-16.59ZM36,16.62l8.94,27.52h-18.46l8.95-27.52s.57,0,.57,0Z"/>
  <rect class="st0" x="219.84" y="100" width="15.13" height="72.73"/>
  <polygon class="st0" points="246.83 72.73 262.17 72.73 262.17 0 246.83 0 246.83 30.01 215.62 30.01 215.62 0 200.24 0 200.24 72.73 215.62 72.73 215.62 42.68 246.83 42.68 246.83 72.73"/>
  <rect class="st0" x="79.43" y="0" width="15.38" height="72.73"/>
  <rect class="st0" x="4.64" y="100" width="15.38" height="72.73"/>
  <path class="st0" d="M73.78,119.96c-3.02-1.71-6.44-2.57-9.91-2.49-3.64-.11-7.24.86-10.33,2.79-2.79,1.79-4.92,4.44-6.07,7.55h-.64v-9.62h-14.42v54.54h15.13v-31.53c-.04-2.08.42-4.15,1.33-6.02.8-1.6,2.06-2.93,3.62-3.82,1.65-.9,3.5-1.35,5.38-1.31,2.68-.14,5.28.89,7.14,2.82,1.73,1.88,2.58,4.49,2.56,7.83v32.03h15.13v-34.73c.1-3.79-.7-7.54-2.34-10.95-1.45-2.95-3.74-5.41-6.57-7.08h-.01Z"/>
  <rect class="st0" x="247.04" y="118.18" width="15.13" height="54.54"/>
  <path class="st0" d="M120.59,161.09c-.7.13-1.42.2-2.13.2-.91.02-1.82-.14-2.68-.46-.77-.31-1.41-.88-1.79-1.62-.48-1.01-.7-2.13-.64-3.25v-26.42h10.26v-11.36h-10.26v-13.07h-15.13v13.07h-7.46v11.36h7.46v28.41c-.15,3.11.63,6.2,2.24,8.88,1.53,2.35,3.76,4.17,6.37,5.18,3.05,1.16,6.31,1.66,9.57,1.46,1.68-.04,3.36-.23,5.01-.59,1.38-.32,2.44-.6,3.2-.84l-2.38-11.26c-.38.07-.92.17-1.63.3h-.01Z"/>
  <path class="st0" d="M459.86,65.16v7.56h14.34v-36.79c.08-2.9-.57-5.78-1.88-8.36-1.22-2.3-2.98-4.26-5.13-5.73-2.26-1.53-4.77-2.65-7.42-3.3-2.85-.72-5.78-1.08-8.72-1.07-3.92-.08-7.82.59-11.49,1.97-3.11,1.18-5.89,3.11-8.08,5.61-2.1,2.47-3.55,5.43-4.19,8.61l13.99,1.14c.53-1.81,1.66-3.4,3.2-4.49,1.92-1.29,4.2-1.91,6.5-1.79,2.15-.14,4.28.52,5.98,1.85,1.45,1.33,2.23,3.25,2.11,5.22v.21c.06,1.05-.44,2.05-1.31,2.63-1.3.73-2.74,1.19-4.23,1.33-1.94.29-4.5.61-7.67.94-2.61.24-5.19.7-7.72,1.35-2.32.58-4.54,1.54-6.55,2.84-1.91,1.25-3.47,2.96-4.54,4.97-1.18,2.37-1.76,4.99-1.67,7.64-.12,3.17.71,6.3,2.36,9,1.57,2.4,3.81,4.29,6.45,5.43,2.94,1.26,6.11,1.89,9.3,1.83,2.42.04,4.84-.32,7.14-1.08,1.94-.65,3.74-1.68,5.29-3.02,1.45-1.26,2.64-2.79,3.51-4.49h.43ZM459.19,53.23c.03,1.82-.48,3.61-1.46,5.15-.99,1.53-2.38,2.78-4.01,3.6-1.83.92-3.85,1.37-5.9,1.33-2.03.08-4.04-.48-5.73-1.61-1.51-1.08-2.36-2.85-2.26-4.7-.04-1.28.34-2.54,1.1-3.57.81-1.02,1.88-1.81,3.09-2.29,1.49-.61,3.05-1.03,4.65-1.24.83-.12,1.75-.25,2.77-.41s2.04-.33,3.05-.53c1.02-.2,1.94-.43,2.75-.67.68-.19,1.33-.47,1.93-.84v5.79h.02Z"/>
  <path class="st0" d="M521.12,40.7v32.03h15.13v-34.73c.1-3.79-.7-7.54-2.34-10.96-1.45-2.95-3.74-5.41-6.57-7.08-3.02-1.71-6.44-2.57-9.91-2.49-3.64-.11-7.24.86-10.33,2.79-2.79,1.79-4.92,4.44-6.07,7.55h-.64v-9.62h-14.42v54.54h15.13v-31.53c-.04-2.08.42-4.15,1.33-6.02.8-1.6,2.06-2.93,3.62-3.82,1.65-.9,3.5-1.35,5.38-1.31,2.68-.14,5.28.89,7.14,2.82,1.73,1.88,2.58,4.49,2.56,7.83h0Z"/>
  <path class="st0" d="M478.21,131.16c1.78-1.28,3.93-1.95,6.13-1.9,2.49-.11,4.91.79,6.73,2.5,1.77,1.78,2.89,4.1,3.18,6.59h14.28c-.12-3.92-1.31-7.72-3.45-11.01-2.12-3.15-5.05-5.67-8.49-7.28-3.92-1.8-8.19-2.69-12.5-2.59-4.99-.13-9.93,1.1-14.28,3.57-3.97,2.35-7.18,5.79-9.25,9.91-2.25,4.58-3.36,9.62-3.25,14.72-.1,5.06,1,10.08,3.21,14.63,2.05,4.14,5.26,7.58,9.23,9.92,4.39,2.47,9.36,3.71,14.4,3.57,4.35.11,8.67-.81,12.6-2.66,3.41-1.65,6.31-4.21,8.36-7.4,2.07-3.3,3.24-7.09,3.39-10.99h-14.28c-.22,1.75-.84,3.43-1.79,4.92-.86,1.32-2.05,2.39-3.45,3.11-3.5,1.68-7.62,1.36-10.81-.85-1.86-1.43-3.28-3.36-4.07-5.57-1.03-2.84-1.52-5.85-1.44-8.88-.08-2.99.42-5.97,1.46-8.77.8-2.19,2.21-4.11,4.07-5.52l.02-.02Z"/>
  <polygon class="st0" points="543.11 173.79 543.1 173.79 543.1 173.79 543.11 173.79"/>
  <polygon class="st0" points="484.16 173.79 484.16 173.79 484.15 173.79 484.16 173.79"/>
  <path class="st0" d="M592.82,159.16h-.01c-3.31-3.31-8.67-3.31-11.97,0-1.62,1.56-2.53,3.72-2.5,5.97.01,4.7,3.82,8.51,8.52,8.52,1.49,0,2.95-.39,4.22-1.15,1.27-.76,2.34-1.82,3.11-3.09,2-3.31,1.43-7.57-1.37-10.25h0Z"/>
  <polygon class="st0" points="586.86 173.65 586.85 173.65 586.85 173.65 586.86 173.65"/>
  <path class="st0" d="M560.73,124.36c-2.32-2.29-5.11-4.05-8.17-5.17-3.23-1.17-6.64-1.75-10.07-1.72-4.9-.12-9.73,1.11-13.97,3.55-3.95,2.35-7.15,5.79-9.21,9.9-2.26,4.59-3.38,9.66-3.26,14.77-.13,5.17.99,10.29,3.27,14.93,2.08,4.09,5.32,7.48,9.32,9.73,4.44,2.38,9.43,3.57,14.47,3.43,4.07.08,8.11-.63,11.91-2.07,3.24-1.24,6.14-3.24,8.45-5.82,2.19-2.5,3.69-5.53,4.35-8.79l-13.99-.92c-.48,1.32-1.26,2.51-2.27,3.48-1.02.97-2.25,1.69-3.59,2.13-1.49.49-3.05.73-4.62.71-2.29.06-4.56-.49-6.57-1.6-1.84-1.06-3.33-2.64-4.28-4.54-1.05-2.18-1.57-4.58-1.51-7v-.03h37.14v-4.15c.08-4.14-.58-8.26-1.95-12.16-1.16-3.25-3.02-6.2-5.45-8.65h0ZM531.02,139.95c.08-1.88.57-3.73,1.5-5.38.98-1.75,2.41-3.21,4.14-4.23,1.85-1.08,3.95-1.62,6.09-1.58,2.03-.04,4.03.45,5.81,1.44,1.65.94,3,2.31,3.92,3.96.97,1.77,1.46,3.77,1.42,5.79h-22.88Z"/>
  <path class="st0" d="M400.91,39.03v33.7h15.09v-36.68c0-5.92-1.59-10.49-4.78-13.72-3.28-3.27-7.78-5.03-12.41-4.85-3.66-.09-7.28.89-10.39,2.82-2.81,1.74-4.95,4.39-6.05,7.51h-.57c-.8-3.06-2.66-5.74-5.26-7.55-2.81-1.91-6.15-2.89-9.55-2.79-3.38-.09-6.71.88-9.52,2.77-2.65,1.85-4.65,4.5-5.68,7.56h-.64v-9.62h-14.42v54.54h15.13v-32.74c-.04-1.83.36-3.64,1.17-5.27.72-1.44,1.82-2.65,3.18-3.52,1.36-.85,2.93-1.28,4.53-1.26,2.25-.09,4.44.77,6.02,2.38,1.58,1.74,2.41,4.04,2.29,6.39v34.02h14.66v-33.31c-.12-2.5.71-4.95,2.31-6.87,1.65-1.79,4-2.74,6.43-2.61,2.23-.07,4.4.75,6.04,2.27,1.61,1.52,2.42,3.79,2.42,6.82h0Z"/>
  <path class="st0" d="M310.47,127.35h-.57c-.78-1.62-1.77-3.12-2.93-4.49-1.38-1.61-3.08-2.92-4.99-3.83-2.4-1.1-5.03-1.63-7.67-1.54-3.89-.03-7.72,1.04-11.03,3.09-3.52,2.26-6.32,5.49-8.04,9.3-2.01,4.14-3.02,9.3-3.02,15.48s.99,11.03,2.97,14.97c1.72,3.66,4.5,6.72,7.99,8.77,3.41,1.92,7.26,2.91,11.17,2.86,2.54.06,5.08-.37,7.46-1.28,1.91-.74,3.65-1.86,5.11-3.3,1.25-1.24,2.26-2.7,2.98-4.3h.64v9.98c0,3.57-1.07,6.14-3.21,7.71-2.39,1.64-5.25,2.46-8.15,2.34-1.9.05-3.79-.24-5.59-.85-1.36-.47-2.61-1.21-3.67-2.18-.86-.8-1.55-1.76-2.02-2.82l-13.99,1.88c.65,2.81,2.03,5.4,4.01,7.49,2.32,2.42,5.17,4.25,8.33,5.36,4.04,1.42,8.31,2.09,12.59,1.99,4.71.08,9.4-.71,13.83-2.34,3.74-1.36,7.02-3.77,9.43-6.94,2.35-3.33,3.55-7.34,3.41-11.42v-55.08h-15.02v9.17l-.02-.02ZM309.25,153.5c-.77,2.09-2.12,3.92-3.91,5.26-1.82,1.26-3.99,1.9-6.2,1.83h0c-2.23.07-4.43-.58-6.26-1.87-1.77-1.35-3.12-3.19-3.87-5.29-.94-2.61-1.4-5.37-1.33-8.15-.05-2.79.39-5.57,1.31-8.2.74-2.18,2.08-4.11,3.87-5.56,3.74-2.66,8.74-2.68,12.5-.05,1.79,1.42,3.15,3.33,3.91,5.49.95,2.67,1.41,5.49,1.35,8.33.07,2.8-.4,5.59-1.37,8.22h0Z"/>
  <polygon class="st0" points="362.42 173.79 362.42 173.79 362.42 173.79 362.42 173.79"/>
  <path class="st0" d="M380.05,124.36c-2.32-2.29-5.11-4.05-8.17-5.17-3.23-1.17-6.64-1.75-10.07-1.72-4.9-.12-9.73,1.11-13.97,3.55-3.95,2.36-7.15,5.79-9.22,9.91-2.26,4.59-3.38,9.66-3.26,14.77-.13,5.17.99,10.29,3.27,14.93,2.08,4.09,5.32,7.48,9.32,9.73,4.44,2.38,9.43,3.57,14.47,3.43,4.07.08,8.11-.63,11.91-2.07,3.24-1.24,6.14-3.24,8.45-5.82,2.19-2.5,3.69-5.53,4.35-8.79l-13.99-.92c-.48,1.32-1.26,2.51-2.27,3.48-1.02.97-2.25,1.69-3.59,2.13-1.49.49-3.05.73-4.62.71-2.29.06-4.56-.49-6.57-1.6-1.84-1.06-3.33-2.64-4.28-4.54-1.05-2.18-1.57-4.58-1.51-7v-.03h37.14v-4.16c.08-4.14-.58-8.26-1.95-12.16-1.16-3.25-3.02-6.2-5.45-8.65h.01ZM350.34,139.95c.08-1.88.57-3.73,1.5-5.38.98-1.75,2.41-3.21,4.14-4.23,1.85-1.08,3.95-1.62,6.09-1.58,2.03-.04,4.03.45,5.81,1.44,1.65.94,3,2.31,3.92,3.96.97,1.77,1.46,3.77,1.42,5.79h-22.88Z"/>
  <path class="st0" d="M438.7,119.96c-3.02-1.71-6.44-2.57-9.91-2.49-3.64-.11-7.24.86-10.33,2.79-2.79,1.79-4.92,4.44-6.07,7.55h-.64v-9.62h-14.42v54.54h15.13v-31.54h0c-.04-2.08.42-4.14,1.33-6.02.8-1.6,2.06-2.93,3.62-3.82,1.65-.9,3.5-1.35,5.38-1.31,2.68-.14,5.28.89,7.14,2.82,1.73,1.88,2.58,4.49,2.56,7.83v32.03h15.13v-34.73c.1-3.79-.7-7.54-2.34-10.95-1.45-2.95-3.74-5.41-6.57-7.08h0Z"/>
  <path class="st0" d="M260.45,98.09c-3.27-3.01-8.29-3.01-11.56,0-.2.18-.4.37-.58.58-2.66,2.98-2.4,7.56.58,10.22,1.56,1.48,3.64,2.29,5.79,2.26,2.15.04,4.22-.77,5.77-2.26.18-.17.36-.34.52-.52,2.69-2.98,2.46-7.58-.52-10.28Z"/>
  <polygon class="st0" points="137.04 57.11 149.07 45.08 161.1 57.11 169.24 48.97 157.21 36.94 169.24 24.91 161.1 16.77 149.07 28.8 137.04 16.77 128.9 24.91 140.93 36.94 128.9 48.97 137.04 57.11"/>
</svg>