<?xml version="1.0" encoding="UTF-8"?>
<svg id="Layer_1" xmlns="http://www.w3.org/2000/svg" version="1.1" viewBox="0 0 595.88 194.96">
  <!-- Generator: Adobe Illustrator 30.3.0, SVG Export Plug-In . SVG Version: 2.1.3 Build 182)  -->
  <defs>
    <style>
      .st0 {
        fill: #fff;
        stroke: #fff;
        stroke-miterlimit: 10;
        stroke-width: .1px;
      }
    </style>
  </defs>
  <rect class="st0" x="195.66" y="99.91" width="14.7" height="70.64"/>
  <path class="st0" d="M283.83,71.7c2.84,1.65,6.07,2.49,9.34,2.42,3.58.12,7.12-.87,10.12-2.83,2.71-1.82,4.8-4.43,5.95-7.49h.55v9.63h14.1V20.44h-14.7v30.42h0c.09,2.08-.4,4.15-1.4,5.96-.88,1.53-2.18,2.8-3.74,3.64-1.52.82-3.23,1.23-4.96,1.22-2.52.12-4.94-.88-6.65-2.72-1.75-2.07-2.64-4.71-2.52-7.41v-31.12h-14.7v33.73c-.08,3.68.71,7.33,2.29,10.66,1.4,2.85,3.58,5.23,6.29,6.87Z"/>
  <path class="st0" d="M178.88,123.58c-2.25-2.22-4.96-3.93-7.94-5.02-3.14-1.14-6.45-1.7-9.78-1.67-4.76-.12-9.45,1.08-13.57,3.45-3.84,2.29-6.94,5.62-8.96,9.63-2.2,4.46-3.28,9.38-3.18,14.35-.13,5.02.96,9.99,3.18,14.5,2.02,3.97,5.17,7.27,9.05,9.45,4.31,2.31,9.16,3.47,14.05,3.33h0c3.95.08,7.88-.6,11.57-2.01,3.15-1.2,5.96-3.15,8.21-5.65,2.13-2.43,3.58-5.37,4.23-8.54l-13.59-.89c-.47,1.28-1.22,2.44-2.2,3.38-.99.94-2.19,1.64-3.49,2.07-1.45.48-2.96.71-4.49.69-2.22.06-4.43-.48-6.38-1.55-1.79-1.03-3.23-2.56-4.16-4.41-1.02-2.12-1.52-4.45-1.47-6.8v-.03h36.08v-4.04c.08-4.02-.56-8.02-1.89-11.81-1.13-3.16-2.93-6.02-5.29-8.4h0ZM150.02,138.72c.08-1.83.56-3.62,1.46-5.23.95-1.7,2.34-3.12,4.02-4.11,1.8-1.05,3.84-1.57,5.92-1.53,1.97-.04,3.91.44,5.64,1.4,1.6.91,2.91,2.24,3.81,3.85.94,1.72,1.42,3.66,1.38,5.62h-22.22,0Z"/>
  <path class="st0" d="M30.48,57.31h25.51l5.24,16.11h16.01L52.86,2.78h-19.24L9.23,73.43h16.01s5.25-16.11,5.25-16.11ZM43.52,18.93l8.68,26.73h-17.93l8.69-26.73s.55,0,.55,0Z"/>
  <rect class="st0" x="222.08" y="99.91" width="14.7" height="70.64"/>
  <polygon class="st0" points="248.3 73.43 263.2 73.43 263.2 2.78 248.3 2.78 248.3 31.93 217.98 31.93 217.98 2.78 203.05 2.78 203.05 73.43 217.98 73.43 217.98 44.24 248.3 44.24 248.3 73.43"/>
  <rect class="st0" x="85.7" y="2.78" width="14.94" height="70.64"/>
  <rect class="st0" x="13.06" y="99.91" width="14.94" height="70.64"/>
  <path class="st0" d="M80.21,119.3c-2.93-1.66-6.26-2.5-9.63-2.42-3.54-.11-7.03.84-10.03,2.71-2.71,1.74-4.78,4.31-5.9,7.33h-.62v-9.34h-14.01v52.98h14.7v-30.63c-.04-2.02.41-4.03,1.29-5.85.78-1.55,2-2.85,3.52-3.71,1.6-.87,3.4-1.31,5.23-1.27,2.6-.14,5.13.86,6.94,2.74,1.68,1.83,2.51,4.36,2.49,7.61v31.11h14.7v-33.73c.1-3.68-.68-7.32-2.27-10.64-1.41-2.87-3.63-5.25-6.38-6.88h0Z"/>
  <rect class="st0" x="248.5" y="117.57" width="14.7" height="52.98"/>
  <path class="st0" d="M125.68,159.25c-.68.13-1.38.19-2.07.19-.88.02-1.77-.14-2.6-.45-.75-.3-1.37-.85-1.74-1.57-.47-.98-.68-2.07-.62-3.16v-25.66h9.97v-11.03h-9.97v-12.7h-14.7v12.7h-7.25v11.03h7.25v27.6c-.15,3.02.61,6.02,2.18,8.63,1.49,2.28,3.65,4.05,6.19,5.03,2.96,1.13,6.13,1.61,9.3,1.42,1.63-.04,3.26-.22,4.87-.57,1.34-.31,2.37-.58,3.11-.82l-2.31-10.94c-.37.07-.89.17-1.58.29h0Z"/>
  <path class="st0" d="M455.22,66.07v7.34h13.93v-35.73c.08-2.82-.55-5.61-1.83-8.12-1.19-2.23-2.89-4.14-4.98-5.57-2.2-1.49-4.63-2.57-7.21-3.21-2.77-.7-5.61-1.05-8.47-1.04-3.81-.08-7.6.57-11.16,1.91-3.02,1.15-5.72,3.02-7.85,5.45-2.04,2.4-3.45,5.27-4.07,8.36l13.59,1.11c.51-1.76,1.61-3.3,3.11-4.36,1.86-1.25,4.08-1.86,6.31-1.74,2.09-.14,4.16.51,5.81,1.8,1.41,1.29,2.17,3.16,2.05,5.07v.2c.06,1.02-.43,1.99-1.27,2.55-1.26.71-2.66,1.16-4.11,1.29-1.88.28-4.37.59-7.45.91-2.54.23-5.04.68-7.5,1.31-2.25.56-4.41,1.5-6.36,2.76-1.86,1.21-3.37,2.88-4.41,4.83-1.15,2.3-1.71,4.85-1.62,7.42-.12,3.08.69,6.12,2.29,8.74,1.52,2.33,3.7,4.17,6.27,5.27,2.86,1.22,5.93,1.84,9.03,1.78,2.35.04,4.7-.31,6.94-1.05,1.88-.63,3.63-1.63,5.14-2.93,1.41-1.22,2.56-2.71,3.41-4.36h.42ZM454.57,54.49c.03,1.77-.47,3.51-1.42,5-.96,1.49-2.31,2.7-3.89,3.5-1.78.89-3.74,1.33-5.73,1.29-1.97.08-3.92-.47-5.57-1.56-1.47-1.05-2.29-2.77-2.2-4.57-.04-1.24.33-2.47,1.07-3.47.79-.99,1.83-1.76,3-2.22,1.45-.59,2.96-1,4.52-1.2.81-.12,1.7-.24,2.69-.4s1.98-.32,2.96-.51c.99-.19,1.88-.42,2.67-.65.66-.18,1.29-.46,1.87-.82v5.62h.02Z"/>
  <path class="st0" d="M514.72,42.31v31.11h14.7v-33.73c.1-3.68-.68-7.32-2.27-10.65-1.41-2.87-3.63-5.25-6.38-6.88-2.93-1.66-6.26-2.5-9.63-2.42-3.54-.11-7.03.84-10.03,2.71-2.71,1.74-4.78,4.31-5.9,7.33h-.62v-9.34h-14.01v52.98h14.7v-30.63c-.04-2.02.41-4.03,1.29-5.85.78-1.55,2-2.85,3.52-3.71,1.6-.87,3.4-1.31,5.23-1.27,2.6-.14,5.13.86,6.94,2.74,1.68,1.83,2.51,4.36,2.49,7.61h0Z"/>
  <path class="st0" d="M473.04,130.18c1.73-1.24,3.82-1.89,5.95-1.85,2.42-.11,4.77.77,6.54,2.43,1.72,1.73,2.81,3.98,3.09,6.4h13.87c-.12-3.81-1.27-7.5-3.35-10.69-2.06-3.06-4.91-5.51-8.25-7.07-3.81-1.75-7.96-2.61-12.14-2.52-4.85-.13-9.65,1.07-13.87,3.47-3.86,2.28-6.97,5.62-8.98,9.63-2.19,4.45-3.26,9.34-3.16,14.3-.1,4.91.97,9.79,3.12,14.21,1.99,4.02,5.11,7.36,8.97,9.64,4.26,2.4,9.09,3.6,13.99,3.47,4.23.11,8.42-.79,12.24-2.58,3.31-1.6,6.13-4.09,8.12-7.19,2.01-3.21,3.15-6.89,3.29-10.67h-13.87c-.21,1.7-.82,3.33-1.74,4.78-.84,1.28-1.99,2.32-3.35,3.02-3.4,1.63-7.4,1.32-10.5-.83-1.81-1.39-3.19-3.26-3.95-5.41-1-2.76-1.48-5.68-1.4-8.63-.08-2.9.41-5.8,1.42-8.52.78-2.13,2.15-3.99,3.95-5.36l.02-.02h0Z"/>
  <polygon class="st0" points="536.08 171.59 536.07 171.59 536.07 171.59 536.08 171.59"/>
  <polygon class="st0" points="478.82 171.59 478.82 171.59 478.81 171.59 478.82 171.59"/>
  <path class="st0" d="M584.37,157.38h0c-3.22-3.22-8.42-3.22-11.63,0-1.57,1.52-2.46,3.61-2.43,5.8,0,4.57,3.71,8.27,8.28,8.28,1.45,0,2.87-.38,4.1-1.12,1.23-.74,2.27-1.77,3.02-3,1.94-3.22,1.39-7.35-1.33-9.96h0Z"/>
  <polygon class="st0" points="578.58 171.45 578.57 171.45 578.57 171.45 578.58 171.45"/>
  <path class="st0" d="M553.2,123.58c-2.25-2.22-4.96-3.93-7.94-5.02-3.14-1.14-6.45-1.7-9.78-1.67-4.76-.12-9.45,1.08-13.57,3.45-3.84,2.28-6.94,5.62-8.95,9.62-2.2,4.46-3.28,9.38-3.17,14.35-.13,5.02.96,9.99,3.18,14.5,2.02,3.97,5.17,7.27,9.05,9.45,4.31,2.31,9.16,3.47,14.05,3.33,3.95.08,7.88-.61,11.57-2.01,3.15-1.2,5.96-3.15,8.21-5.65,2.13-2.43,3.58-5.37,4.23-8.54l-13.59-.89c-.47,1.28-1.22,2.44-2.2,3.38-.99.94-2.19,1.64-3.49,2.07-1.45.48-2.96.71-4.49.69-2.22.06-4.43-.48-6.38-1.55-1.79-1.03-3.23-2.56-4.16-4.41-1.02-2.12-1.52-4.45-1.47-6.8v-.03h36.07v-4.03c.08-4.02-.56-8.02-1.89-11.81-1.13-3.16-2.93-6.02-5.29-8.4h0ZM524.34,138.72c.08-1.83.55-3.62,1.46-5.23.95-1.7,2.34-3.12,4.02-4.11,1.8-1.05,3.84-1.57,5.92-1.53,1.97-.04,3.91.44,5.64,1.4,1.6.91,2.91,2.24,3.81,3.85.94,1.72,1.42,3.66,1.38,5.62h-22.22Z"/>
  <path class="st0" d="M397.96,40.69v32.73h14.66v-35.63c0-5.75-1.54-10.19-4.64-13.33-3.19-3.18-7.56-4.89-12.05-4.71-3.56-.09-7.07.86-10.09,2.74-2.73,1.69-4.81,4.26-5.88,7.29h-.55c-.78-2.97-2.58-5.58-5.11-7.33-2.73-1.86-5.97-2.81-9.28-2.71-3.28-.09-6.52.85-9.25,2.69-2.57,1.8-4.52,4.37-5.52,7.34h-.62v-9.34h-14.01v52.98h14.7v-31.8c-.04-1.78.35-3.54,1.14-5.12.7-1.4,1.77-2.57,3.09-3.42,1.32-.83,2.85-1.24,4.4-1.22,2.19-.09,4.31.75,5.85,2.31,1.53,1.69,2.34,3.92,2.22,6.21v33.04h14.24v-32.35c-.12-2.43.69-4.81,2.24-6.67,1.6-1.74,3.89-2.66,6.25-2.54,2.17-.07,4.27.73,5.87,2.2,1.56,1.48,2.35,3.68,2.35,6.62h0Z"/>
  <path class="st0" d="M310.11,126.48h-.55c-.76-1.57-1.72-3.03-2.85-4.36-1.34-1.56-2.99-2.84-4.85-3.72-2.33-1.07-4.89-1.58-7.45-1.5-3.78-.03-7.5,1.01-10.71,3-3.42,2.2-6.14,5.33-7.81,9.03-1.95,4.02-2.93,9.03-2.93,15.04s.96,10.71,2.88,14.54c1.67,3.56,4.37,6.53,7.76,8.52,3.31,1.86,7.05,2.83,10.85,2.78,2.47.06,4.93-.36,7.25-1.24,1.86-.72,3.55-1.81,4.96-3.21,1.21-1.2,2.2-2.62,2.89-4.18h.62v9.69c0,3.47-1.04,5.96-3.12,7.49-2.32,1.59-5.1,2.39-7.92,2.27-1.85.05-3.68-.23-5.43-.83-1.32-.46-2.54-1.18-3.56-2.12-.84-.78-1.51-1.71-1.96-2.74l-13.59,1.83c.63,2.73,1.97,5.25,3.89,7.28,2.25,2.35,5.02,4.13,8.09,5.21,3.92,1.38,8.07,2.03,12.23,1.93,4.57.08,9.13-.69,13.43-2.27,3.63-1.32,6.82-3.66,9.16-6.74,2.28-3.23,3.45-7.13,3.31-11.09v-53.5h-14.59v8.91l-.02-.02h0ZM308.93,151.88c-.75,2.03-2.06,3.81-3.8,5.11-1.77,1.22-3.88,1.85-6.02,1.78h0c-2.17.07-4.3-.56-6.08-1.82-1.72-1.31-3.03-3.1-3.76-5.14-.91-2.54-1.36-5.22-1.29-7.92-.05-2.71.38-5.41,1.27-7.96.72-2.12,2.02-3.99,3.76-5.4,3.63-2.58,8.49-2.6,12.14-.05,1.74,1.38,3.06,3.23,3.8,5.33.92,2.59,1.37,5.33,1.31,8.09.07,2.72-.39,5.43-1.33,7.98h0Z"/>
  <polygon class="st0" points="360.57 171.59 360.57 171.59 360.57 171.59 360.57 171.59"/>
  <path class="st0" d="M377.7,123.58c-2.25-2.22-4.96-3.93-7.94-5.02-3.14-1.14-6.45-1.7-9.78-1.67-4.76-.12-9.45,1.08-13.57,3.45-3.84,2.29-6.94,5.62-8.96,9.63-2.2,4.46-3.28,9.38-3.17,14.35-.13,5.02.96,9.99,3.18,14.5,2.02,3.97,5.17,7.27,9.05,9.45,4.31,2.31,9.16,3.47,14.05,3.33,3.95.08,7.88-.61,11.57-2.01,3.15-1.2,5.96-3.15,8.21-5.65,2.13-2.43,3.58-5.37,4.23-8.54l-13.59-.89c-.47,1.28-1.22,2.44-2.2,3.38-.99.94-2.19,1.64-3.49,2.07-1.45.48-2.96.71-4.49.69-2.22.06-4.43-.48-6.38-1.55-1.79-1.03-3.23-2.56-4.16-4.41-1.02-2.12-1.52-4.45-1.47-6.8v-.03h36.07v-4.04c.08-4.02-.56-8.02-1.89-11.81-1.13-3.16-2.93-6.02-5.29-8.4h0ZM348.84,138.72c.08-1.83.55-3.62,1.46-5.23.95-1.7,2.34-3.12,4.02-4.11,1.8-1.05,3.84-1.57,5.92-1.53,1.97-.04,3.91.44,5.64,1.4,1.6.91,2.91,2.24,3.81,3.85.94,1.72,1.42,3.66,1.38,5.62h-22.22Z"/>
  <path class="st0" d="M434.67,119.3c-2.93-1.66-6.26-2.5-9.63-2.42-3.54-.11-7.03.84-10.03,2.71-2.71,1.74-4.78,4.31-5.9,7.33h-.62v-9.34h-14.01v52.98h14.7v-30.64h0c-.04-2.02.41-4.02,1.29-5.85.78-1.55,2-2.85,3.52-3.71,1.6-.87,3.4-1.31,5.23-1.27,2.6-.14,5.13.86,6.94,2.74,1.68,1.83,2.51,4.36,2.49,7.61v31.11h14.7v-33.73c.1-3.68-.68-7.32-2.27-10.64-1.41-2.87-3.63-5.25-6.38-6.88h0Z"/>
  <path class="st0" d="M261.53,98.06c-3.18-2.92-8.05-2.92-11.23,0-.19.17-.39.36-.56.56-2.58,2.89-2.33,7.34.56,9.93,1.52,1.44,3.54,2.22,5.62,2.2,2.09.04,4.1-.75,5.6-2.2.17-.17.35-.33.51-.51,2.61-2.89,2.39-7.36-.51-9.99Z"/>
  <polygon class="st0" points="141.66 58.25 153.34 46.57 165.03 58.25 172.93 50.35 161.25 38.66 172.93 26.98 165.03 19.07 153.34 30.76 141.66 19.07 133.75 26.98 145.44 38.66 133.75 50.35 141.66 58.25"/>
</svg>