<?xml version="1.0" encoding="UTF-8"?>
<svg id="Layer_1" xmlns="http://www.w3.org/2000/svg" version="1.1" viewBox="0 0 2729.36 1301.29">
  <!-- Generator: Adobe Illustrator 30.3.0, SVG Export Plug-In . SVG Version: 2.1.3 Build 182)  -->
  <defs>
    <style>
      .st0 {
        fill: #fff;
        stroke: #fff;
        stroke-miterlimit: 10;
        stroke-width: .1px;
      }
    </style>
  </defs>
  <path class="st0" d="M579.78,1012.2c11.63,2.29,39.37,9.2,47.84,2.05,4.87-5.08,2.89-14.84,2.78-21.65-.57-11.51-.8-22.5-.84-33.79-.2-57.67-.11-122.58,3.47-176.97,2.78-44.37,6.6-86.7,12.07-128.22,26.2-186.6,60.57-365.72,133.32-512.96,2.76-5.45,3.91-10.42-.89-15.77-1.92-2.22-4.69-4.53-7.65-6.78-5.11-3.9-10.9-7.48-16.4-10.68-24.76-14.05-51.42-25.92-78.46-35.19-16.82-5.38-36.17-12.06-53.38-12.55-8.75,1.05-7.38,10.57-11.31,17.87-2.53,4.96-7.07,8.29-11.79,11.02-11.15,6.49-22.49,13.68-34.01,21.59-100.07,69.74-180.81,161.69-256.82,260.03-36.22,47.15-69.46,95.81-100.99,147.21-4.04,6.45-9.53,11.18-16.91,13.65-27.21,6.88-52.96,11.37-75.15,20.42-11.69,4.64-24.41,10.68-33.57,19.26-16.38,15.44,5.97,12.2,16.26,12.52h41.41c6.46.42,14.94-1.32,20.6,2.14,4.16,3.49-.61,10.55-2.7,14.67-23.69,42.71-43.22,79.35-63.67,120.15-28.31,57.16-54.33,110.98-72.96,168.66-8.07,28.19-20.68,64.08,2.61,88.61,19.08,19.25,38.43,24.59,66.55,34.86,11.12,3.76,21.05,4.82,21.54-9.74,6.99-68.15,23.7-135.24,46.71-200.39,22.84-68.12,55.49-133.74,89.41-197.44,4.35-8.76,12.67-13.15,22.37-12.65,15.78-.03,31.8,0,48.1-.01h98.54c23.77.38,45.37-1.16,68.49,1.72,9.87,1.34,19.66,3.16,19.08,14.88-6.76,50.79-13.56,100.15-16.54,149.17-3.89,55.42-5.37,109.71-5.13,164.4,0,6.78,0,13.39.15,20.13.34,8.8-.16,18.81,4.69,26.22,19.28,23.46,64.05,35.94,92.98,43.49l.21.05v.02h-.01,0ZM296.13,515.97c-1.13-2.08,2.33-7.69,4.26-10.57,23.82-36.73,47.86-70.68,73.95-104.21,49.52-62.73,100.12-121.74,163.06-167.13,13.2-9.32,25.73-16.84,37.56-22.51,8.46-4.09,16.17-7.77,13.99,4.98-12.26,66.17-32.55,131.8-47.01,197.09-6.44,27.49-12.28,55.34-17.98,83.13-.84,3.48-2.11,6.52-4.29,8.59-2.27,2.22-5.56,3.36-9.53,3.77-75.89.81-145.97,3.36-208.55,8.81-2.84.03-4.82-.47-5.43-1.87l-.04-.08h0Z"/>
  <path class="st0" d="M1612.77,528.23c-11.51-8.82-23.16-16.64-33.8-26.26-9.68-8.48-19.33-17.64-30.53-24.08-73.17-39.92-160.56,56.34-206.4,115.76-38.44,52.7-126.19,100.37-177.12,92.57-44.86-6.16-40.23-56.76-28.04-90.73,5.55-16.26,13.08-29.69,15.74-46.28,4.65-24.48-11.56-43.82-36.19-48.83-33.74-7.6-55.77,13.15-72.43,39.8-5.69,8.6-10.89,16.72-16.28,25.25-59.67,94.91-108.91,246.9-205.55,297.6-5.64,3.08-14.07,6.5-19.06,5.29-3.8-.71-6.44-3.37-8.06-7.35-23.51-83.14,87.88-255.42,131.04-336.8,6.34-10.86,9.99-23.8,3.28-35.78-13.79-23.62-51.23-23.53-75.86-11.83-11.65,5.77-18.81,13.27-26.37,22.45-72.79,91.22-219.26,326.25-105.86,423.69,83.98,59.92,152.92-48.89,200.81-112.98,3.09-3.34,9.9-12.73,14.39-8.98,2.06,1.72,1.77,9.4.56,14.54-51.46,178.92-180.1,435.94-386.7,406.35-9.62-.72-23.87-2.51-25.86,7.36,0,9.69,9.29,16.5,16.35,21.94,10,7.07,21.11,11.55,33.76,15.51,392.89,122.13,352.31-500.78,647.28-548.79,17.59-2.9,36.03,1.05,42.63,18.96,7.29,18.75,4.85,39.01,5.63,58.16,20.57,405.93,572.62-66.71,342.79-266.43l-.16-.12h.01ZM1565.23,725.43c-18.02,62.14-52.7,126.38-105.46,166.02-17.2,12.4-42.32,27.19-63.71,28.48-6.27.05-11.84-1.91-16.47-5.24-122.41-98.69,217.14-531.99,202.47-290.42-1.95,34.69-8.07,66.62-16.78,100.96l-.05.19h0Z"/>
  <path class="st0" d="M2213.01,464.25c-15.7-8.98-33.29-15.46-50.85-18.24-39.18-7.15-75.44,13.4-106.8,35.17-58.68,41.68-109.24,96.3-157.44,150.77-9.81,11.17-19.3,22.39-27.7,32.05-7.88,8.47-28.8,34.77-34.35,28.82-4.37-9.14,5.64-37.44,10.06-52.05,12.86-38.99,28.15-77.47,44.79-115.03,37.11-83.5,78.89-163.78,132.51-237.8,14.68-20.61,29.94-40.86,45.6-60.7,25.61-32.58,51.87-62.94,79.2-93.69,11.92-13.57,25.62-31.27,30.13-46.43,13.67-41-35.56-64.92-69.93-67.66-46.48-4.63-79.54,28.12-105.54,63.7-36.08,48.16-69.12,98.49-99.62,150.39-95.46,161.66-159.97,340.35-203.59,522.58-12.41,60.04-34.11,148.65-14.42,206.5,6.02,16.45,18.27,31.67,35.46,23.38,14.24-6.8,26.57-26.96,35.36-42.64,11.29-20.6,21.96-41.76,33.81-62.13,47.84-82.7,103.83-160.24,170.21-228.82,22.76-22.74,48.19-47.95,75.44-63.95,59.64-32.4,4.72,67.88-3.58,88.59-20.95,46.86-41.42,94.56-57.11,143.52-8.43,27.28-15.52,56.93-10.3,85.23,5.91,35.32,33.05,56.82,69.05,55.14,20.43-.11,47.44-10.66,60.52-23.86,7.27-7.09,7.38-15.26,2.05-23.65-18.08-26.05-26.28-40.59-16.89-75.14,3.77-14.07,9.77-28.47,15.81-42.1,11.11-24.84,23.75-49.04,37.05-72.76,26.69-47.6,56.82-94.3,89.29-138.79,33.39-45.27,49.59-86.45-8.05-120.32l-.15-.09h-.02Z"/>
  <path class="st0" d="M2285.65,722.54c31.58-214.63,163.04-530.74,301.3-696.91,40.21-28.94,110.28,44.57,128.59,77.56,6.71,11.37,5.96,25.03-2.61,35.48-179.18,168.42-300.31,404.49-353.1,646.49-2.09,6.21-5.42,11.86-10.08,14.64-10.32,5.97-23.28.45-32.51-5.63-23.47-15.55-32.57-44.5-31.59-71.46v-.2.02h0Z"/>
  <path class="st0" d="M2363.66,868.74c26.5,56.42-27.22,96.97-86.26,92.96-13.72-.81-28.23-4.54-39.56-12.28-27.22-17.75-18.54-52.67-2.87-76.61,13.14-19.49,32.72-19.19,54.08-20.24,10.72-.56,21.51-2,32.13-3.31,19.88-2.89,33.53,1.25,42.38,19.28l.1.2h0Z"/>
</svg>