<svg xmlns="http://www.w3.org/2000/svg" xmlns:xlink="http://www.w3.org/1999/xlink" width="1427.295" height="794.156" viewBox="0 0 1427.295 794.156">
  <defs>
    <clipPath id="clip-path">
      <rect id="Rectangle_44" data-name="Rectangle 44" width="1427.295" height="794.156" fill="none"/>
    </clipPath>
  </defs>
  <g id="Group_47" data-name="Group 47" transform="translate(0 0.004)">
    <g id="Group_46" data-name="Group 46" transform="translate(0 -0.004)" clip-path="url(#clip-path)">
      <path id="Path_190" data-name="Path 190" d="M358.644,640.7c7.309,1.442,24.75,5.781,30.077,1.287,3.061-3.193,1.819-9.329,1.75-13.614-.356-7.237-.506-14.142-.53-21.243-.129-36.252-.068-77.061,2.18-111.254,1.745-27.9,4.152-54.5,7.586-80.607,16.469-117.306,38.076-229.909,83.81-322.472,1.738-3.426,2.461-6.548-.559-9.911a32.647,32.647,0,0,0-4.807-4.263A100.88,100.88,0,0,0,467.839,71.9a292.852,292.852,0,0,0-49.325-22.121c-10.574-3.385-22.737-7.582-33.556-7.89-5.5.661-4.642,6.647-7.108,11.233-1.588,3.117-4.444,5.21-7.411,6.928q-10.514,6.122-21.384,13.571C286.148,117.47,235.387,175.274,187.6,237.1a1065.737,1065.737,0,0,0-63.486,92.542,19.651,19.651,0,0,1-10.634,8.584c-17.1,4.324-33.293,7.149-47.24,12.84C58.9,353.98,50.9,357.774,45.137,363.167c-10.3,9.71,3.752,7.671,10.221,7.873,8.812,0,17.3,0,26.033,0,4.06.267,9.392-.828,12.95,1.347,2.615,2.193-.384,6.634-1.7,9.223-14.89,26.851-27.167,49.884-40.029,75.532-17.8,35.933-34.157,69.766-45.864,106.029-5.076,17.723-13,40.286,1.64,55.7,12,12.1,24.161,15.458,41.834,21.915,6.988,2.364,13.235,3.03,13.54-6.123,4.4-42.841,14.9-85.019,29.361-125.974,14.355-42.827,34.883-84.074,56.209-124.12,2.736-5.5,7.967-8.265,14.065-7.949,9.92-.019,19.993,0,30.238-.009,20.947,0,41.395,0,61.946,0,14.944.237,28.525-.73,43.055,1.084,6.2.841,12.362,1.986,11.992,9.353-4.249,31.932-8.521,62.96-10.395,93.778-2.443,34.839-3.379,68.972-3.224,103.351,0,4.264,0,8.417.092,12.655.215,5.533-.1,11.822,2.949,16.486,12.121,14.75,40.268,22.592,58.455,27.342ZM180.328,328.736c-.71-1.307,1.466-4.833,2.68-6.648,14.974-23.092,30.091-44.431,46.487-65.51C260.629,217.14,292.436,180.046,332,151.511a165.081,165.081,0,0,1,23.613-14.151c5.318-2.57,10.165-4.882,8.8,3.132-7.71,41.6-20.46,82.856-29.556,123.9-4.05,17.285-7.718,34.789-11.3,52.26a10.775,10.775,0,0,1-2.7,5.4,9.726,9.726,0,0,1-5.992,2.37c-47.711.511-91.767,2.109-131.1,5.536-1.782.02-3.031-.3-3.416-1.173Z" transform="translate(0 -16.324)" fill="#fff"/>
      <path id="Path_191" data-name="Path 191" d="M1244.01,500.548c-7.234-5.547-14.559-10.463-21.248-16.508-6.088-5.33-12.153-11.091-19.193-15.14-46-25.1-100.935,35.415-129.753,72.774-24.163,33.129-79.328,63.1-111.345,58.192-28.2-3.872-25.289-35.683-17.626-57.035,3.491-10.219,8.222-18.662,9.893-29.094,2.924-15.389-7.268-27.547-22.754-30.7-21.209-4.779-35.062,8.268-45.534,25.023-3.579,5.408-6.849,10.513-10.235,15.876C838.7,583.607,807.75,679.156,747,711.024c-3.549,1.938-8.844,4.088-11.981,3.323-2.388-.444-4.048-2.117-5.066-4.618C715.171,657.465,785.194,549.158,812.331,498c3.982-6.829,6.278-14.961,2.065-22.491-8.67-14.851-32.206-14.794-47.687-7.436-7.326,3.628-11.826,8.34-16.579,14.116-45.759,57.346-137.841,205.1-66.55,266.354,52.8,37.672,96.135-30.736,126.243-71.023,1.941-2.1,6.225-8,9.046-5.646,1.293,1.082,1.111,5.912.35,9.14C786.865,793.488,706,955.066,576.116,936.464c-6.049-.451-15.005-1.576-16.259,4.624,0,6.09,5.837,10.374,10.279,13.794,6.286,4.447,13.27,7.262,21.224,9.749,246.991,76.775,221.482-314.818,406.917-345,11.059-1.821,22.652.662,26.8,11.921,4.585,11.789,3.047,24.522,3.538,36.56,12.931,255.189,359.98-41.938,215.495-167.491Zm-29.886,123.974c-11.329,39.065-33.127,79.451-66.3,104.369-10.812,7.8-26.606,17.093-40.052,17.906a17.273,17.273,0,0,1-10.353-3.292c-76.952-62.042,136.5-334.435,127.284-182.572-1.226,21.809-5.073,41.881-10.55,63.472Z" transform="translate(-218.186 -180.429)" fill="#fff"/>
      <path id="Path_192" data-name="Path 192" d="M2084.071,279.893a95.323,95.323,0,0,0-31.969-11.464c-24.627-4.5-47.425,8.424-67.14,22.11-36.892,26.2-68.674,60.538-98.975,94.781-6.168,7.024-12.135,14.072-17.417,20.145-4.954,5.327-18.107,21.858-21.592,18.119-2.746-5.748,3.547-23.535,6.325-32.721,8.082-24.508,17.7-48.7,28.155-72.313,23.327-52.495,49.592-102.96,83.3-149.5q13.846-19.432,28.669-38.16c16.1-20.48,32.608-39.568,49.787-58.9,7.494-8.527,16.105-19.656,18.94-29.187C2070.746,17.03,2039.8,2,2018.192.273c-29.221-2.913-50,17.678-66.345,40.047a1017.177,1017.177,0,0,0-62.627,94.544c-60.013,101.628-100.565,213.959-127.99,328.523-7.8,37.747-21.446,93.452-9.064,129.817,3.783,10.341,11.485,19.909,22.295,14.7,8.953-4.277,16.706-16.948,22.227-26.806,7.1-12.949,13.807-26.251,21.253-39.06,30.074-51.988,65.275-100.736,107-143.851,14.311-14.3,30.295-30.146,47.428-40.2,37.5-20.367,2.97,42.675-2.252,55.694-13.172,29.458-26.039,59.444-35.9,90.227-5.3,17.15-9.754,35.791-6.472,53.579,3.712,22.2,20.78,35.718,43.408,34.663,12.846-.071,29.823-6.7,38.046-15,4.569-4.454,4.637-9.591,1.286-14.867-11.363-16.373-16.518-25.515-10.62-47.238,2.371-8.842,6.145-17.9,9.939-26.465,6.983-15.615,14.932-30.829,23.292-45.74a872.391,872.391,0,0,1,56.13-87.249c20.99-28.462,31.177-54.348-5.062-75.64Z" transform="translate(-680.908 0.004)" fill="#fff"/>
    </g>
  </g>
</svg>
